<svg width="235" height="71" viewBox="0 0 235 71" fill="none" xmlns="http://www.w3.org/2000/svg">
<g clip-path="url(#clip0_42_22335)" filter="url(#filter0_ii_42_22335)">
<path d="M0 42.0915V9.5778C0 5.47345 4.02553 3.45923 7.88759 3.45923C11.7497 3.45923 15.6146 5.47053 15.6146 9.57488V39.1928C15.6146 51.7481 19.719 53.5171 25.2712 53.5171C30.8235 53.5171 35.8153 51.5058 35.8153 39.3533V9.5778C35.8153 5.47345 39.5168 3.46215 43.2183 3.46215C46.9198 3.46215 50.703 5.47345 50.703 9.5778V41.6886C50.703 59.554 40.4013 67.6021 25.1895 67.6021C9.97772 67.6021 0 59.6357 0 42.0915Z" fill="#F7FAFF"/>
<path d="M60.3599 14.8089C60.3599 6.84248 63.8191 4.18604 72.0307 4.18604H83.5381C98.4258 4.18604 106.395 11.6708 106.395 25.1924C106.395 38.714 97.3807 46.4381 84.262 46.4381H75.4899V61.5681C75.4899 65.833 71.3038 67.9261 67.6841 67.9261C64.0643 67.9261 60.3599 65.833 60.3599 61.5681V14.8089ZM81.6873 33.7222C89.896 33.7222 91.5862 30.4235 91.5862 25.1924C91.5862 19.9612 88.9298 17.0625 81.3662 17.0625H77.7435C75.9716 17.0625 75.3294 17.7076 75.3294 19.4766V33.7222H81.6873Z" fill="#F7FAFF"/>
<path d="M165.128 68.005C152.01 68.005 141.387 59.2329 141.387 43.2971C141.387 27.3614 153.782 19.3132 165.047 19.3132C171.807 19.3132 176.878 21.0034 179.934 23.5781C181.706 25.026 182.43 26.8768 182.43 28.567C182.43 32.3502 179.695 35.3278 177.039 35.3278C175.751 35.3278 174.14 35.0067 173.255 34.3615C171.647 33.153 169.472 32.1897 166.655 32.1897C160.942 32.1897 156.274 35.7306 156.274 43.2154C156.274 49.9762 159.17 54.965 166.416 54.965C169.957 54.965 172.452 53.7565 174.303 52.6297C175.591 51.824 176.639 51.4241 177.762 51.4241C180.822 51.4241 183.639 54.3199 183.639 57.782C183.639 59.554 182.994 61.323 181.225 62.9314C177.844 66.2301 171.407 68.002 165.128 68.002V68.005Z" fill="#F7FAFF"/>
<path d="M232.328 55.6131C238.768 62.695 227.821 73.3178 221.384 65.512L208.426 49.8185L203.597 54.0834V61.5682C203.597 65.8331 199.735 67.9261 196.113 67.9261C192.49 67.9261 188.628 65.8331 188.628 61.5682V6.27621C188.628 2.09012 192.572 0 196.194 0C199.817 0 203.597 2.09304 203.597 6.27621V36.0546L219.451 21.3274C227.257 14.1638 236.272 25.1895 229.835 30.984L218.246 40.9647L232.331 55.6131H232.328Z" fill="#F7FAFF"/>
<path d="M128.949 36.5276C129.313 36.0663 129.378 35.4358 129.118 34.9074L118.819 14.158C116.265 9.01148 110.447 8.75168 105.978 10.9673C101.608 13.1363 98.198 17.9762 100.752 23.1227L111.217 44.2137C111.506 44.7946 112.131 45.1333 112.776 45.0457C115.836 44.6312 119.073 43.7759 122.088 42.1937C124.792 40.7749 127.08 38.8804 128.949 36.5305V36.5276Z" fill="#F7FAFF"/>
<path d="M140.415 57.6681L133.301 43.3321C132.851 42.4242 131.646 42.1965 130.91 42.8942C129.1 44.6107 127.054 46.0732 124.765 47.2759C122.012 48.7209 119.146 49.6667 116.346 50.2622C115.374 50.4695 114.855 51.532 115.298 52.4224L122.351 66.6358C124.859 71.686 130.627 71.8494 134.997 69.6805C139.367 67.5116 142.922 62.7212 140.415 57.671V57.6681Z" fill="#1576FB"/>
</g>
<defs>
<filter id="filter0_ii_42_22335" x="0" y="-3.51386" width="234.287" height="76.2708" filterUnits="userSpaceOnUse" color-interpolation-filters="sRGB">
<feFlood flood-opacity="0" result="BackgroundImageFix"/>
<feBlend mode="normal" in="SourceGraphic" in2="BackgroundImageFix" result="shape"/>
<feColorMatrix in="SourceAlpha" type="matrix" values="0 0 0 0 0 0 0 0 0 0 0 0 0 0 0 0 0 0 127 0" result="hardAlpha"/>
<feOffset dy="-4.39232"/>
<feGaussianBlur stdDeviation="1.75693"/>
<feComposite in2="hardAlpha" operator="arithmetic" k2="-1" k3="1"/>
<feColorMatrix type="matrix" values="0 0 0 0 0.290196 0 0 0 0 0.352941 0 0 0 0 0.584314 0 0 0 0.25 0"/>
<feBlend mode="normal" in2="shape" result="effect1_innerShadow_42_22335"/>
<feColorMatrix in="SourceAlpha" type="matrix" values="0 0 0 0 0 0 0 0 0 0 0 0 0 0 0 0 0 0 127 0" result="hardAlpha"/>
<feOffset dy="1.75693"/>
<feGaussianBlur stdDeviation="1.61052"/>
<feComposite in2="hardAlpha" operator="arithmetic" k2="-1" k3="1"/>
<feColorMatrix type="matrix" values="0 0 0 0 1 0 0 0 0 1 0 0 0 0 1 0 0 0 0.25 0"/>
<feBlend mode="screen" in2="effect1_innerShadow_42_22335" result="effect2_innerShadow_42_22335"/>
</filter>
<clipPath id="clip0_42_22335">
<rect width="234.287" height="71" fill="white"/>
</clipPath>
</defs>
</svg>
