<svg width="24" height="16" viewBox="0 0 24 16" fill="none" xmlns="http://www.w3.org/2000/svg">
<path d="M9.72131 7.19069C9.72131 7.19069 12.0009 7.02278 12.0009 4.36949C12.0009 1.7162 10.1359 0.421143 7.77337 0.421143H0V15.2486H7.77337C7.77337 15.2486 12.5185 15.3974 12.5185 10.8722C12.5185 10.8722 12.7253 7.19069 9.72131 7.19069ZM3.42524 3.05615H7.77337C7.77337 3.05615 8.83025 3.05615 8.83025 4.59891C8.83025 6.14168 8.20885 6.36528 7.5037 6.36528H3.42524V3.05615ZM7.57321 12.6128H3.42524V8.65033H7.77337C7.77337 8.65033 9.34864 8.62955 9.34864 10.6869C9.34864 12.4017 8.19712 12.5962 7.57321 12.6128Z" fill="white"/>
<path d="M18.7906 4.19739C13.0803 4.19739 13.0861 9.90065 13.0861 9.90065C13.0861 9.90065 12.6941 15.5748 18.7914 15.5748C18.7914 15.5748 23.8723 15.8652 23.8723 11.6273H21.2594C21.2594 11.6273 21.3468 13.2233 18.8788 13.2233C18.8788 13.2233 16.2659 13.398 16.2659 10.6404H23.9597C23.9597 10.6404 24.8013 4.19739 18.7914 4.19739H18.7906ZM21.1129 8.65915H16.2351C16.2351 8.65915 16.5547 6.37085 18.848 6.37085C21.1412 6.37085 21.1121 8.65915 21.1121 8.65915H21.1129Z" fill="white"/>
<path d="M21.7214 1.2959H15.5958V3.12404H21.7214V1.2959Z" fill="white"/>
</svg>
