<svg width="20" height="24" viewBox="0 0 20 24" fill="none" xmlns="http://www.w3.org/2000/svg">
<path fill-rule="evenodd" clip-rule="evenodd" d="M19.8546 18.4813C18.6693 16.522 18.0289 14.2814 17.9996 11.9915V8.00231C17.9996 3.58276 14.4179 0 9.99962 0C5.58134 0 1.99962 3.58276 1.99962 8.00231V11.9855C1.97133 14.2775 1.33088 16.5202 0.14462 18.4813C-0.0423452 18.7902 -0.0484292 19.1758 0.128701 19.4904C0.305831 19.805 0.638684 19.9996 0.99962 19.9998H18.9996C19.3606 19.9996 19.6934 19.805 19.8705 19.4904C20.0477 19.1758 20.0416 18.7902 19.8546 18.4813Z" fill="#224AAE"/>
<path fill-rule="evenodd" clip-rule="evenodd" d="M11.0066 23.8253C11.8553 23.5229 12.5232 22.8551 12.8256 22.0063H7.17361C7.44068 22.7559 7.99455 23.3686 8.71338 23.7097C9.43221 24.0508 10.2571 24.0924 11.0066 23.8253Z" fill="#224AAE"/>
</svg>
