<svg width="20" height="19" viewBox="0 0 20 19" fill="none" xmlns="http://www.w3.org/2000/svg">
<path d="M18.034 16.2858C17.8822 16.2858 17.7304 16.2525 17.5889 16.186L9.10134 12.1146C8.74629 11.9456 8.52246 11.5897 8.52246 11.198V5.08843C8.52246 4.69667 8.74629 4.34075 9.10134 4.17175L17.5889 0.100442C17.9054 -0.0506318 18.2785 -0.0301473 18.5769 0.154214C18.8753 0.341136 19.0554 0.666328 19.0554 1.01713V15.2693C19.0554 15.6201 18.8753 15.9453 18.5769 16.1322C18.4122 16.2346 18.2218 16.2884 18.034 16.2884V16.2858ZM10.5704 10.5578L17.0126 13.6484V2.63797L10.5704 5.72858V10.5578Z" fill="#00B7F0"/>
<path d="M9.54645 12.2149H4.70452C2.4482 12.2149 0.61377 10.3892 0.61377 8.14357C0.61377 5.89795 2.4482 4.07227 4.70452 4.07227H9.54645C10.1125 4.07227 10.5704 4.52805 10.5704 5.09137V11.1983C10.5704 11.7617 10.1125 12.2174 9.54645 12.2174V12.2149ZM4.70452 6.10792C3.57765 6.10792 2.65912 7.02204 2.65912 8.14357C2.65912 9.2651 3.57765 10.1792 4.70452 10.1792H8.52249V6.10792H4.70452Z" fill="#00B7F0"/>
<path d="M7.8407 19.0005C6.33562 19.0005 5.11353 17.7817 5.11353 16.2863V11.1959C5.11353 10.6325 5.57147 10.1768 6.13749 10.1768H9.54642C10.1124 10.1768 10.5704 10.6325 10.5704 11.1959V16.2863C10.5704 17.7842 9.34577 19.0005 7.84327 19.0005H7.8407ZM7.15887 12.215V16.2863C7.15887 16.6601 7.46507 16.9648 7.8407 16.9648C8.21632 16.9648 8.52246 16.6601 8.52246 16.2863V12.215H7.15887Z" fill="#00B7F0"/>
</svg>
