<svg width="23" height="24" viewBox="0 0 23 24" fill="none" xmlns="http://www.w3.org/2000/svg">
<path d="M1.31921 24C0.977802 24 0.639693 23.8709 0.387783 23.6255C0.00660332 23.2543 -0.102811 22.6959 0.106009 22.2149L2.10141 17.6538C0.742419 15.7751 0 13.5123 0 11.2011C0 5.02596 5.15751 0 11.5017 0C17.8458 0 23 5.02273 23 11.2011C23 17.3794 17.8425 22.3989 11.5017 22.3989C10.0565 22.3989 8.64781 22.1375 7.30208 21.6178L1.8363 23.8935C1.67057 23.9645 1.49488 23.9968 1.31921 23.9968V24ZM11.5017 2.56947C6.61262 2.56947 2.63841 6.44304 2.63841 11.2011C2.63841 13.1831 3.34775 15.1231 4.63713 16.6596C4.9487 17.0276 5.02157 17.5344 4.82932 17.9734L3.81843 20.2781L6.78167 19.045C7.11976 18.903 7.50755 18.9063 7.84564 19.058C9.00907 19.5744 10.2388 19.8359 11.5017 19.8359C16.3907 19.8359 20.3649 15.9623 20.3649 11.2043C20.3649 6.44627 16.3874 2.57271 11.5017 2.57271V2.56947Z" fill="#F7FAFF"/>
<path d="M6.84136 12.7765C6.11215 12.7765 5.52216 12.1987 5.52216 11.4918C5.52216 10.7849 6.11546 10.207 6.84136 10.207C7.56726 10.207 8.16057 10.7849 8.16057 11.4918C8.16057 12.1987 7.56726 12.7765 6.84136 12.7765Z" fill="#F7FAFF"/>
<path d="M11.5018 12.7765C10.7726 12.7765 10.1826 12.1987 10.1826 11.4918C10.1826 10.7849 10.7759 10.207 11.5018 10.207C12.2277 10.207 12.821 10.7849 12.821 11.4918C12.821 12.1987 12.2277 12.7765 11.5018 12.7765Z" fill="#F7FAFF"/>
<path d="M16.1589 12.7765C15.4297 12.7765 14.8397 12.1987 14.8397 11.4918C14.8397 10.7849 15.433 10.207 16.1589 10.207C16.8848 10.207 17.4781 10.7849 17.4781 11.4918C17.4781 12.1987 16.8848 12.7765 16.1589 12.7765Z" fill="#F7FAFF"/>
</svg>
