<svg width="30" height="32" viewBox="0 0 30 32" fill="none" xmlns="http://www.w3.org/2000/svg">
<path d="M1.69423 32C1.25577 32 0.821545 31.8278 0.498022 31.5007C0.00848052 31.0058 -0.132038 30.2612 0.136145 29.6199L2.6988 23.5384C0.953475 21.0335 0 18.0164 0 14.9348C0 6.70128 6.62369 0 14.7714 0C22.919 0 29.5385 6.69698 29.5385 14.9348C29.5385 23.1726 22.9148 29.8652 14.7714 29.8652C12.9154 29.8652 11.1062 29.5166 9.37792 28.8237L2.35833 31.858C2.14549 31.9526 1.91985 31.9957 1.69423 31.9957V32ZM14.7714 3.42597C8.49246 3.42597 3.38846 8.59072 3.38846 14.9348C3.38846 17.5774 4.29945 20.1641 5.95537 22.2128C6.35552 22.7034 6.4491 23.3791 6.2022 23.9645L4.90394 27.0375L8.70957 25.3934C9.14377 25.204 9.64181 25.2083 10.076 25.4106C11.5702 26.0993 13.1495 26.4479 14.7714 26.4479C21.0503 26.4479 26.1543 21.2831 26.1543 14.9391C26.1543 8.59503 21.046 3.43027 14.7714 3.43027V3.42597Z" fill="#1576FB"/>
<path d="M8.78627 17.0353C7.84976 17.0353 7.09204 16.2649 7.09204 15.3224C7.09204 14.3798 7.85401 13.6094 8.78627 13.6094C9.71853 13.6094 10.4805 14.3798 10.4805 15.3224C10.4805 16.2649 9.71853 17.0353 8.78627 17.0353Z" fill="#1576FB"/>
<path d="M14.7716 17.0353C13.8351 17.0353 13.0774 16.2649 13.0774 15.3224C13.0774 14.3798 13.8394 13.6094 14.7716 13.6094C15.7039 13.6094 16.4659 14.3798 16.4659 15.3224C16.4659 16.2649 15.7039 17.0353 14.7716 17.0353Z" fill="#1576FB"/>
<path d="M20.7527 17.0353C19.8162 17.0353 19.0585 16.2649 19.0585 15.3224C19.0585 14.3798 19.8204 13.6094 20.7527 13.6094C21.685 13.6094 22.4469 14.3798 22.4469 15.3224C22.4469 16.2649 21.685 17.0353 20.7527 17.0353Z" fill="#1576FB"/>
</svg>
