<svg width="10" height="12" viewBox="0 0 10 12" fill="none" xmlns="http://www.w3.org/2000/svg">
<path d="M9.00398 4.256C8.98464 4.2192 8.96208 4.184 8.93146 4.152L6.52524 1.6224L5.14404 0.156797C5.10536 0.116797 5.06346 0.0831945 5.01834 0.0543945C5.01189 0.0495945 5.00544 0.0464016 4.999 0.0416016C4.99577 0.0400016 4.99416 0.0767953 4.99094 0.0751953C4.88941 0.00639531 4.77175 0 4.64766 0H0.818338C0.463771 0 0.12854 0.241602 0.12854 0.592002V11.2784C0.12854 11.6304 0.463771 12 0.818338 12H8.50759C8.86215 12 8.99431 11.6304 8.99431 11.2784V5.0064C8.99431 4.9872 9.05233 4.968 9.062 4.9488C9.1587 4.7264 9.1587 4.4432 9.00398 4.256ZM7.02969 4.16H5.2891V2.21439L5.45993 2.3888L7.03131 4.16H7.02969ZM1.4211 10.72V1.28H3.99976V4.66399C3.99976 5.01599 4.31082 5.44 4.66538 5.44H7.86776V10.72H1.4211Z" fill="#00B7F0"/>
<path d="M6.07398 8.63965H2.99892C2.64436 8.63965 2.35748 8.92765 2.35748 9.27965C2.35748 9.63165 2.64436 9.91965 2.99892 9.91965H6.07398C6.42855 9.91965 6.71542 9.63165 6.71542 9.27965C6.71542 8.92765 6.42855 8.63965 6.07398 8.63965Z" fill="#00B7F0"/>
<path d="M2.99892 7.83973H4.79271C5.14727 7.83973 5.43416 7.63173 5.43416 7.27973C5.43416 6.92773 5.14727 6.71973 4.79271 6.71973H2.99892C2.64436 6.71973 2.35748 6.92773 2.35748 7.27973C2.35748 7.63173 2.64436 7.83973 2.99892 7.83973Z" fill="#00B7F0"/>
</svg>
