<svg width="22" height="22" viewBox="0 0 22 22" fill="none" xmlns="http://www.w3.org/2000/svg">
<path fill-rule="evenodd" clip-rule="evenodd" d="M21.5134 10.468C20.6749 9.07068 19.6801 7.79686 18.5525 6.677L7.90726 18.477C8.85 18.8167 9.8344 18.9931 10.8257 19C17.2047 19 21.3401 11.837 21.5134 11.532C21.6977 11.2068 21.6977 10.7932 21.5134 10.468Z" fill="#F94A23"/>
<path fill-rule="evenodd" clip-rule="evenodd" d="M20.484 0.293019C20.1318 -0.0966966 19.5614 -0.0966966 19.2093 0.293019L15.5484 4.35102C14.0965 3.48214 12.4755 3.01844 10.8257 3.00002C4.44663 3.00002 0.311214 10.163 0.138003 10.468C-0.0463416 10.7933 -0.0463416 11.2068 0.138003 11.532C1.31932 13.4862 2.80339 15.1932 4.5215 16.574L2.06858 19.293C1.82849 19.5426 1.73007 19.9173 1.81177 20.2707C1.89348 20.6241 2.14234 20.9002 2.46112 20.991C2.7799 21.0818 3.118 20.973 3.34331 20.707L20.484 1.70702C20.8362 1.31652 20.8362 0.683519 20.484 0.293019ZM7.21713 11C7.21713 8.79088 8.83273 7.00002 10.8257 7.00002C11.4667 7.00376 12.0945 7.20229 12.6408 7.57402L7.73495 13.011C7.40015 12.4056 7.22108 11.7102 7.21713 11Z" fill="#F94A23"/>
</svg>
