<svg width="14" height="12" viewBox="0 0 14 12" fill="none" xmlns="http://www.w3.org/2000/svg">
<path fill-rule="evenodd" clip-rule="evenodd" d="M12.5424 1.12389C11.8174 0.39947 10.8547 0 9.82996 0C8.80525 0 7.84247 0.39947 7.11805 1.12334C7.10874 1.13265 7.09942 1.14197 7.09011 1.15183C7.08079 1.14197 7.07202 1.1332 7.06271 1.12389C6.33774 0.39947 5.37496 0 4.35026 0C3.32555 0 2.36277 0.39947 1.6378 1.12389C0.91284 1.8483 0.514465 2.81109 0.514465 3.83579C0.514465 4.8605 0.913388 5.82328 1.6378 6.5477L7.09011 12L12.5424 6.5477C13.2668 5.82328 13.6658 4.8605 13.6658 3.83579C13.6658 2.81164 13.2668 1.8483 12.5424 1.12389Z" fill="#F7FAFF"/>
</svg>
