<svg width="21" height="21" viewBox="0 0 21 21" fill="none" xmlns="http://www.w3.org/2000/svg">
<path fill-rule="evenodd" clip-rule="evenodd" d="M19.2063 2.66963C18.0486 1.51288 16.5112 0.875 14.875 0.875C13.2388 0.875 11.7014 1.51287 10.5446 2.66875C10.5297 2.68362 10.5149 2.6985 10.5 2.71425C10.4851 2.6985 10.4711 2.6845 10.4563 2.66963C9.29862 1.51288 7.76125 0.875 6.125 0.875C4.48875 0.875 2.95138 1.51288 1.79375 2.66963C0.636125 3.82638 0 5.36375 0 7C0 8.63625 0.637 10.1736 1.79375 11.3304L10.5 20.0366L19.2063 11.3304C20.363 10.1736 21 8.63625 21 7C21 5.36462 20.363 3.82638 19.2063 2.66963Z" fill="#4A5A95"/>
</svg>
