<svg width="25" height="24" viewBox="0 0 25 24" fill="none" xmlns="http://www.w3.org/2000/svg">
<g clip-path="url(#clip0_474_2715)">
<path d="M12.3055 0C5.78297 0 0.5 5.28517 0.5 11.8104C0.5 17.0267 3.88425 21.4556 8.57695 23.0205C9.16722 23.1288 9.35414 22.7646 9.35414 22.4497V20.2549C6.06827 20.9734 5.38945 18.8573 5.38945 18.8573C4.84837 17.4893 4.08101 17.1251 4.08101 17.1251C3.00867 16.387 4.15971 16.4067 4.15971 16.4067C5.34027 16.4854 5.96989 17.6271 5.96989 17.6271C7.02255 19.4282 8.73435 18.9066 9.40333 18.6113C9.51155 17.8535 9.81653 17.322 10.151 17.0366C7.53413 16.7315 4.76966 15.7276 4.76966 11.2002C4.76966 9.91093 5.23205 8.85783 5.98957 8.0311C5.87151 7.73584 5.46816 6.53511 6.10762 4.90133C6.10762 4.90133 7.10126 4.58639 9.35414 6.1119C10.2986 5.84617 11.3021 5.71822 12.3055 5.71822C13.309 5.71822 14.3223 5.85601 15.2667 6.1119C17.5196 4.58639 18.5133 4.90133 18.5133 4.90133C19.1527 6.52527 18.7494 7.726 18.6313 8.0311C19.3888 8.85783 19.8512 9.91093 19.8512 11.2002C19.8512 15.7374 17.0868 16.7315 14.46 17.0267C14.8831 17.3909 15.2667 18.1093 15.2667 19.2117V22.4497C15.2667 22.7646 15.4537 23.1288 16.0538 23.0205C20.7465 21.4556 24.1209 17.0267 24.1209 11.8104C24.111 5.28517 18.8281 0 12.3055 0Z" fill="#F7FAFF"/>
</g>
<defs>
<clipPath id="clip0_474_2715">
<rect width="24" height="24" fill="white" transform="translate(0.5)"/>
</clipPath>
</defs>
</svg>
