<svg width="18" height="18" viewBox="0 0 18 18" fill="none" xmlns="http://www.w3.org/2000/svg">
<path d="M15.7554 2.99536C15.7555 2.99545 15.7556 2.99554 15.7557 2.99562C16.5594 3.79954 17 4.86357 17 6C17 7.13723 16.5594 8.20064 15.7554 9.00464L9 15.76L2.24461 9.00464C1.44061 8.20064 1 7.13723 1 6C1 4.86244 1.44008 3.79928 2.24434 2.99562C3.04951 2.19106 4.1132 1.75 5.25 1.75C6.38668 1.75 7.45027 2.19097 8.25541 2.99537L15.7554 2.99536ZM15.7554 2.99536C14.9503 2.19096 13.8867 1.75 12.75 1.75C11.6132 1.75 10.5496 2.19108 9.74525 2.99472M15.7554 2.99536L9.74525 2.99472M9.74525 2.99472C9.7452 2.99477 9.74514 2.99482 9.74509 2.99487L9.73138 3.00864L9.72702 3.01311L9 3.78292L8.27298 3.01311L8.26885 3.00887L9.74525 2.99472Z" stroke="#B1C2D0" stroke-width="2"/>
</svg>
