<svg width="23" height="24" viewBox="0 0 23 24" fill="none" xmlns="http://www.w3.org/2000/svg">
<g filter="url(#filter0_i_103_212)">
<path d="M21.4024 24H1.60713C0.916199 24 0.357178 23.4264 0.357178 22.7174V11.4348C0.357178 11.0964 0.489075 10.7677 0.721479 10.5292L10.6175 0.374635C11.1043 -0.124878 11.8958 -0.124878 12.3825 0.374635L22.2786 10.5292C22.5141 10.7709 22.6429 11.0964 22.6429 11.4348V22.7174C22.6429 23.4264 22.0839 24 21.3929 24H21.4024ZM20.1524 21.438V11.9666L11.5032 3.09134L2.85396 11.9666V21.438H20.1524Z" fill="#00B7F0"/>
<path d="M15.498 24H7.50834C6.81741 24 6.25839 23.4264 6.25839 22.7174V14.5189C6.25839 13.8099 6.81741 13.2363 7.50834 13.2363H15.498C16.189 13.2363 16.748 13.8099 16.748 14.5189V22.7174C16.748 23.4264 16.189 24 15.498 24ZM8.75517 21.438H14.2481V15.8015H8.75517V21.438Z" fill="#00B7F0"/>
<path d="M11.6634 1.9336L2.5556 10.7959L1.61342 11.4405L2.08451 22.8809L7.89463 22.5587V15.3077H15.275L16.0602 22.0753L20.9281 22.5587V11.4405L11.6634 1.9336Z" fill="#00B7F0"/>
</g>
<defs>
<filter id="filter0_i_103_212" x="0.357178" y="0" width="22.2857" height="25" filterUnits="userSpaceOnUse" color-interpolation-filters="sRGB">
<feFlood flood-opacity="0" result="BackgroundImageFix"/>
<feBlend mode="normal" in="SourceGraphic" in2="BackgroundImageFix" result="shape"/>
<feColorMatrix in="SourceAlpha" type="matrix" values="0 0 0 0 0 0 0 0 0 0 0 0 0 0 0 0 0 0 127 0" result="hardAlpha"/>
<feOffset dy="1"/>
<feGaussianBlur stdDeviation="2"/>
<feComposite in2="hardAlpha" operator="arithmetic" k2="-1" k3="1"/>
<feColorMatrix type="matrix" values="0 0 0 0 0.694118 0 0 0 0 0.760784 0 0 0 0 0.815686 0 0 0 0.6 0"/>
<feBlend mode="multiply" in2="shape" result="effect1_innerShadow_103_212"/>
</filter>
</defs>
</svg>
