<svg width="25" height="22" viewBox="0 0 25 22" fill="none" xmlns="http://www.w3.org/2000/svg">
<path fill-rule="evenodd" clip-rule="evenodd" d="M22.45 2.051C21.127 0.729 19.37 0 17.5 0C15.63 0 13.873 0.729 12.551 2.05C12.534 2.067 12.517 2.084 12.5 2.102C12.483 2.084 12.467 2.068 12.45 2.051C11.127 0.729 9.37 0 7.5 0C5.63 0 3.873 0.729 2.55 2.051C1.227 3.373 0.5 5.13 0.5 7C0.5 8.87 1.228 10.627 2.55 11.949L12.5 21.899L22.45 11.949C23.772 10.627 24.5 8.87 24.5 7C24.5 5.131 23.772 3.373 22.45 2.051Z" fill="#F7FAFF"/>
</svg>
