<svg width="11" height="12" viewBox="0 0 11 12" fill="none" xmlns="http://www.w3.org/2000/svg">
<path fill-rule="evenodd" clip-rule="evenodd" d="M5.04893 11.7949C5.16208 11.9253 5.32585 12 5.50003 12C5.67422 12 5.83798 11.9253 5.95113 11.7949C6.37841 11.2996 10.1286 6.89672 10.1286 4.55533C10.1286 2.04397 8.05177 0 5.50003 0C2.94829 0 0.87146 2.04397 0.87146 4.55533C0.87146 6.89672 4.62166 11.3011 5.04893 11.7949ZM3.41878 4.57729C3.41878 5.70843 4.35223 6.62711 5.50007 6.62711C6.64939 6.62711 7.58284 5.70697 7.58284 4.57729C7.58284 3.44762 6.6479 2.52894 5.50007 2.52894C4.35223 2.52894 3.41878 3.44616 3.41878 4.57729Z" fill="#808E99"/>
</svg>
