<svg width="8" height="10" viewBox="0 0 8 10" fill="none" xmlns="http://www.w3.org/2000/svg">
<path fill-rule="evenodd" clip-rule="evenodd" d="M3.61016 9.82907C3.70794 9.93774 3.84947 10 4 10C4.15053 10 4.29206 9.93774 4.38984 9.82907C4.75909 9.41637 8 5.74727 8 3.79611C8 1.70331 6.2052 0 4 0C1.7948 0 0 1.70331 0 3.79611C0 5.74727 3.24091 9.41759 3.61016 9.82907ZM2.20139 3.81441C2.20139 4.75703 3.00808 5.52259 4.00003 5.52259C4.99327 5.52259 5.79996 4.7558 5.79996 3.81441C5.79996 2.87302 4.99199 2.10745 4.00003 2.10745C3.00808 2.10745 2.20139 2.8718 2.20139 3.81441Z" fill="#4A5A95"/>
</svg>
