<svg width="31" height="31" viewBox="0 0 31 31" fill="none" xmlns="http://www.w3.org/2000/svg">
<g filter="url(#filter0_dd_710_4674)">
<path d="M25.6066 26.9999H4.39689C3.62474 26.9999 3 26.3846 3 25.6241C3 20.6223 7.13103 16.5537 12.2097 16.5537H17.7903C22.8689 16.5537 27 20.6223 27 25.6241C27 26.3846 26.3752 26.9999 25.6031 26.9999H25.6066ZM5.9447 24.2518H24.0588C23.42 21.4242 20.8543 19.3052 17.7938 19.3052H12.2132C9.15268 19.3052 6.587 21.4242 5.94822 24.2518H5.9447Z" fill="#00B7F0"/>
<path d="M15 15.0916C11.613 15.0916 8.86133 12.3781 8.86133 9.0458C8.86133 5.71352 11.6165 3 15 3C18.3834 3 21.1386 5.71352 21.1386 9.0458C21.1386 12.3781 18.3834 15.0916 15 15.0916ZM15 5.74808C13.1538 5.74808 11.6516 7.22757 11.6516 9.0458C11.6516 10.864 13.1538 12.3435 15 12.3435C16.8461 12.3435 18.3483 10.864 18.3483 9.0458C18.3483 7.22757 16.8461 5.74808 15 5.74808Z" fill="#00B7F0"/>
<path d="M9.31069 17.9297H20.693C23.406 17.9297 25.6067 20.0971 25.6067 22.7691V25.6244H4.39697V22.7691C4.39697 20.0971 6.59762 17.9297 9.31069 17.9297Z" fill="#00B7F0"/>
<path d="M25.6066 26.9999H4.39689C3.62474 26.9999 3 26.3846 3 25.6241C3 20.6223 7.13103 16.5537 12.2097 16.5537H17.7903C22.8689 16.5537 27 20.6223 27 25.6241C27 26.3846 26.3752 26.9999 25.6031 26.9999H25.6066ZM5.9447 24.2518H24.0588C23.42 21.4242 20.8543 19.3052 17.7938 19.3052H12.2132C9.15268 19.3052 6.587 21.4242 5.94822 24.2518H5.9447Z" fill="#00B7F0"/>
<path d="M15.0001 13.7156C17.6209 13.7156 19.7454 11.6232 19.7454 9.04215C19.7454 6.46105 17.6209 4.36865 15.0001 4.36865C12.3794 4.36865 10.2549 6.46105 10.2549 9.04215C10.2549 11.6232 12.3794 13.7156 15.0001 13.7156Z" fill="#00B7F0"/>
<path d="M15 15.0916C11.613 15.0916 8.86133 12.3781 8.86133 9.0458C8.86133 5.71352 11.6165 3 15 3C18.3834 3 21.1386 5.71352 21.1386 9.0458C21.1386 12.3781 18.3834 15.0916 15 15.0916ZM15 5.74808C13.1538 5.74808 11.6516 7.22757 11.6516 9.0458C11.6516 10.864 13.1538 12.3435 15 12.3435C16.8461 12.3435 18.3483 10.864 18.3483 9.0458C18.3483 7.22757 16.8461 5.74808 15 5.74808Z" fill="#00B7F0"/>
</g>
<defs>
<filter id="filter0_dd_710_4674" x="0" y="0" width="31" height="31" filterUnits="userSpaceOnUse" color-interpolation-filters="sRGB">
<feFlood flood-opacity="0" result="BackgroundImageFix"/>
<feColorMatrix in="SourceAlpha" type="matrix" values="0 0 0 0 0 0 0 0 0 0 0 0 0 0 0 0 0 0 127 0" result="hardAlpha"/>
<feOffset dx="1" dy="1"/>
<feGaussianBlur stdDeviation="1.5"/>
<feColorMatrix type="matrix" values="0 0 0 0 0.694118 0 0 0 0 0.760784 0 0 0 0 0.815686 0 0 0 0.7 0"/>
<feBlend mode="multiply" in2="BackgroundImageFix" result="effect1_dropShadow_710_4674"/>
<feColorMatrix in="SourceAlpha" type="matrix" values="0 0 0 0 0 0 0 0 0 0 0 0 0 0 0 0 0 0 127 0" result="hardAlpha"/>
<feOffset dx="-1" dy="-1"/>
<feGaussianBlur stdDeviation="1"/>
<feColorMatrix type="matrix" values="0 0 0 0 1 0 0 0 0 1 0 0 0 0 1 0 0 0 0.7 0"/>
<feBlend mode="normal" in2="effect1_dropShadow_710_4674" result="effect2_dropShadow_710_4674"/>
<feBlend mode="normal" in="SourceGraphic" in2="effect2_dropShadow_710_4674" result="shape"/>
</filter>
</defs>
</svg>
