<svg width="26" height="26" viewBox="0 0 26 26" fill="none" xmlns="http://www.w3.org/2000/svg">
<path d="M24.4905 26H1.5133C0.676799 26 0 25.3334 0 24.5096C0 19.0909 4.47528 14.6833 9.97718 14.6833H16.0228C21.5247 14.6833 26 19.0909 26 24.5096C26 25.3334 25.3232 26 24.4867 26H24.4905ZM3.1901 23.0229H22.8137C22.1217 19.9597 19.3422 17.6641 16.0266 17.6641H9.98099C6.6654 17.6641 3.88592 19.9597 3.1939 23.0229H3.1901Z" fill="#B1C2D0"/>
<path d="M13.0003 13.0992C9.33111 13.0992 6.3501 10.1596 6.3501 6.54962C6.3501 2.93965 9.33491 0 13.0003 0C16.6657 0 19.6505 2.93965 19.6505 6.54962C19.6505 10.1596 16.6657 13.0992 13.0003 13.0992ZM13.0003 2.97708C11.0003 2.97708 9.37292 4.57987 9.37292 6.54962C9.37292 8.51938 11.0003 10.1222 13.0003 10.1222C15.0003 10.1222 16.6277 8.51938 16.6277 6.54962C16.6277 4.57987 15.0003 2.97708 13.0003 2.97708Z" fill="#B1C2D0"/>
<path d="M6.83638 16.1737H19.1672C22.1063 16.1737 24.4904 18.5217 24.4904 21.4164V24.5096H1.51318V21.4164C1.51318 18.5217 3.89721 16.1737 6.83638 16.1737Z" fill="#B1C2D0"/>
<path d="M24.4905 26H1.5133C0.676799 26 0 25.3334 0 24.5096C0 19.0909 4.47528 14.6833 9.97718 14.6833H16.0228C21.5247 14.6833 26 19.0909 26 24.5096C26 25.3334 25.3232 26 24.4867 26H24.4905ZM3.1901 23.0229H22.8137C22.1217 19.9597 19.3422 17.6641 16.0266 17.6641H9.98099C6.6654 17.6641 3.88592 19.9597 3.1939 23.0229H3.1901Z" fill="#B1C2D0"/>
<path d="M13.0001 11.6088C15.8392 11.6088 18.1407 9.34205 18.1407 6.54586C18.1407 3.74968 15.8392 1.48291 13.0001 1.48291C10.1609 1.48291 7.85938 3.74968 7.85938 6.54586C7.85938 9.34205 10.1609 11.6088 13.0001 11.6088Z" fill="#B1C2D0"/>
<path d="M13.0003 13.0992C9.33111 13.0992 6.3501 10.1596 6.3501 6.54962C6.3501 2.93965 9.33491 0 13.0003 0C16.6657 0 19.6505 2.93965 19.6505 6.54962C19.6505 10.1596 16.6657 13.0992 13.0003 13.0992ZM13.0003 2.97708C11.0003 2.97708 9.37292 4.57987 9.37292 6.54962C9.37292 8.51938 11.0003 10.1222 13.0003 10.1222C15.0003 10.1222 16.6277 8.51938 16.6277 6.54962C16.6277 4.57987 15.0003 2.97708 13.0003 2.97708Z" fill="#B1C2D0"/>
</svg>
