<svg width="24" height="24" viewBox="0 0 24 24" fill="none" xmlns="http://www.w3.org/2000/svg">
<path fill-rule="evenodd" clip-rule="evenodd" d="M21.855 18.482C20.6697 16.5232 20.0293 14.2833 20 11.994V8.00598C20 3.5877 16.4183 0.00598145 12 0.00598145C7.58171 0.00598145 3.99999 3.5877 3.99999 8.00598V11.988C3.9717 14.2793 3.33125 16.5214 2.14499 18.482C1.95802 18.7907 1.95194 19.1763 2.12907 19.4907C2.3062 19.8052 2.63905 19.9998 2.99999 20H21C21.3609 19.9998 21.6938 19.8052 21.8709 19.4907C22.048 19.1763 22.042 18.7907 21.855 18.482Z" fill="#F9FFFF"/>
<path fill-rule="evenodd" clip-rule="evenodd" d="M13.007 23.825C13.8557 23.5226 14.5236 22.8547 14.826 22.006H9.17398C9.44104 22.7555 9.99491 23.3682 10.7137 23.7093C11.4326 24.0505 12.2575 24.0921 13.007 23.825Z" fill="#F9FFFF"/>
</svg>
