<svg width="32" height="24" viewBox="0 0 32 24" fill="none" xmlns="http://www.w3.org/2000/svg">
<path d="M24.7044 11.8129C27.9094 11.8129 30.5075 9.1685 30.5075 5.90646C30.5075 2.64442 27.9094 0 24.7044 0C21.4995 0 18.9014 2.64442 18.9014 5.90646C18.9014 9.1685 21.4995 11.8129 24.7044 11.8129Z" fill="#B1C2D0"/>
<path d="M8.41393 14.3016H23.5903C27.2077 14.3016 30.1419 16.619 30.1419 19.476V22.5289H1.8623V19.476C1.8623 16.619 4.7965 14.3016 8.41393 14.3016Z" fill="#B1C2D0"/>
<path d="M30.1421 24H1.86252C0.832983 24 0 23.3421 0 22.529C0 17.1809 5.50804 12.8307 12.2796 12.8307H19.7204C26.4919 12.8307 32 17.1809 32 22.529C32 23.3421 31.167 24 30.1374 24H30.1421ZM3.92627 21.0617H28.0784C27.2267 18.0384 23.8058 15.7727 19.725 15.7727H12.2843C8.20357 15.7727 4.78267 18.0384 3.93096 21.0617H3.92627Z" fill="#B1C2D0"/>
<path d="M7.29526 11.8129C10.5002 11.8129 13.0983 9.1685 13.0983 5.90646C13.0983 2.64442 10.5002 0 7.29526 0C4.09032 0 1.49219 2.64442 1.49219 5.90646C1.49219 9.1685 4.09032 11.8129 7.29526 11.8129Z" fill="#B1C2D0"/>
</svg>
