<svg width="31" height="31" viewBox="0 0 31 31" fill="none" xmlns="http://www.w3.org/2000/svg">
<g filter="url(#filter0_dd_710_4601)">
<path d="M5 21H9V25C9 26.1 9.9 27 11 27H19C20.1 27 21 26.1 21 25V21H25C26.1 21 27 20.1 27 19V11C27 9.9 26.1 9 25 9H21V5C21 3.9 20.1 3 19 3H11C9.9 3 9 3.9 9 5V9H5C3.9 9 3 9.9 3 11V19C3 20.1 3.9 21 5 21Z" fill="#00B7F0"/>
</g>
<defs>
<filter id="filter0_dd_710_4601" x="0" y="0" width="31" height="31" filterUnits="userSpaceOnUse" color-interpolation-filters="sRGB">
<feFlood flood-opacity="0" result="BackgroundImageFix"/>
<feColorMatrix in="SourceAlpha" type="matrix" values="0 0 0 0 0 0 0 0 0 0 0 0 0 0 0 0 0 0 127 0" result="hardAlpha"/>
<feOffset dx="1" dy="1"/>
<feGaussianBlur stdDeviation="1.5"/>
<feColorMatrix type="matrix" values="0 0 0 0 0.694118 0 0 0 0 0.760784 0 0 0 0 0.815686 0 0 0 0.7 0"/>
<feBlend mode="multiply" in2="BackgroundImageFix" result="effect1_dropShadow_710_4601"/>
<feColorMatrix in="SourceAlpha" type="matrix" values="0 0 0 0 0 0 0 0 0 0 0 0 0 0 0 0 0 0 127 0" result="hardAlpha"/>
<feOffset dx="-1" dy="-1"/>
<feGaussianBlur stdDeviation="1"/>
<feColorMatrix type="matrix" values="0 0 0 0 1 0 0 0 0 1 0 0 0 0 1 0 0 0 0.7 0"/>
<feBlend mode="normal" in2="effect1_dropShadow_710_4601" result="effect2_dropShadow_710_4601"/>
<feBlend mode="normal" in="SourceGraphic" in2="effect2_dropShadow_710_4601" result="shape"/>
</filter>
</defs>
</svg>
