<svg width="25" height="25" viewBox="0 0 25 25" fill="none" xmlns="http://www.w3.org/2000/svg">
<path fill-rule="evenodd" clip-rule="evenodd" d="M10.2618 21.7862C10.1192 21.1988 9.45756 20.9742 8.98681 21.2634L8.98057 21.2673C8.35315 21.6621 7.62008 21.8724 6.85594 21.868C5.80684 21.8586 4.79088 21.414 4.03376 20.6528L3.83694 20.4549C3.07552 19.6893 2.63133 18.6565 2.6268 17.5874C2.62226 16.5144 3.03872 15.5123 3.78906 14.7579L8.57978 9.94115L13.4556 14.8435L13.8762 14.6761C14.5585 14.4046 15.302 14.2648 16.0643 14.2648C16.9597 14.2648 17.817 14.4571 18.5962 14.8249L19.0338 15.0315L22.4444 11.6024C25.0138 9.01904 25.0138 4.81095 22.4444 2.22762L22.1571 1.93881C19.5857 -0.646577 15.3935 -0.646116 12.8221 1.93927L7.21011 7.5925C7.1833 7.61948 7.15684 7.64816 7.13122 7.67862C7.09693 7.70671 7.05848 7.74153 7.02107 7.78256L1.98686 12.8388C0.743588 14.0888 0 15.7897 0 17.5743C0 19.348 0.682547 21.0145 1.93367 22.2724L2.16773 22.5077C3.39429 23.7409 5.05865 24.4835 6.81747 24.5015C8.00131 24.5134 9.14885 24.2157 10.1561 23.6346C10.543 23.4119 10.6734 22.9481 10.5172 22.5709C10.4131 22.3136 10.3281 22.0521 10.2618 21.7862ZM8.5798 8.96879C8.57978 8.96882 8.57982 8.96877 8.5798 8.96879ZM13.3089 2.42231L7.69683 8.07554C7.66492 8.10763 7.63832 8.13972 7.61704 8.17181C7.61707 8.17179 7.61701 8.17183 7.61704 8.17181C7.63832 8.13972 7.66492 8.10763 7.69683 8.07554L13.3089 2.42231ZM9.81398 23.0403C9.81571 23.0393 9.81741 23.0383 9.81909 23.0372Z" fill="#B1C2D0"/>
<path d="M18.7773 16.863C17.9874 16.2319 17.0309 15.9185 16.0744 15.9185C14.9598 15.9185 13.8453 16.3478 12.9913 17.2022C11.4114 18.7907 11.3003 21.3023 12.6582 23.0196L18.7816 16.863H18.7773Z" fill="#B1C2D0"/>
<path d="M19.4906 17.58L13.3672 23.7366C14.1572 24.3677 15.1137 24.6854 16.0702 24.6854C17.1847 24.6854 18.2992 24.2561 19.1532 23.4017C20.7332 21.8132 20.8442 19.3016 19.4863 17.5842L19.4906 17.58Z" fill="#B1C2D0"/>
</svg>
