<svg width="27" height="27" viewBox="0 0 27 27" fill="none" xmlns="http://www.w3.org/2000/svg">
<path d="M10.2425 23.5679L10.2425 23.5679C10.5319 23.3913 10.9383 23.5279 11.026 23.8884C11.1028 24.1949 11.2015 24.4961 11.3222 24.7921C11.4203 25.0256 11.3379 25.3108 11.1008 25.4465C10.0687 26.0379 8.89166 26.3417 7.67466 26.3296L7.6746 26.3296C5.87346 26.3113 4.16285 25.5558 2.89891 24.2939L2.64429 24.0396C1.35862 22.756 0.657146 21.0567 0.657146 19.2443C0.657146 17.4263 1.42046 15.6881 2.70216 14.4084L2.70229 14.4083L8.18545 8.93969C8.22274 8.8979 8.26351 8.86404 8.29722 8.83893C8.32428 8.80446 8.35365 8.7718 8.38466 8.74082L10.2425 23.5679ZM10.2425 23.5679L10.2394 23.5698C9.4908 24.0376 8.61719 24.2858 7.70911 24.2804C6.45528 24.2694 5.24985 23.7423 4.35559 22.8495L4.14148 22.6357L3.89924 22.8784L4.14147 22.6357C3.24189 21.7376 2.71394 20.5232 2.70856 19.2601C2.70317 17.9951 3.1985 16.8116 4.08939 15.9221L9.58775 10.4326L14.8315 15.6679L14.9906 15.8268L15.1997 15.7441C15.9914 15.4313 16.8512 15.2712 17.7299 15.2712C18.7628 15.2712 19.7547 15.4917 20.6572 15.9148L20.8749 16.0168L21.045 15.847L24.384 12.5133C27.0239 9.87766 27.0239 5.58129 24.384 2.94564L24.0715 2.63365C21.432 -0.00168884 17.1296 -0.00168884 14.4901 2.63365L14.4898 2.63388L8.38489 8.74059L10.2425 23.5679Z" fill="#B1C2D0" stroke="#B1C2D0" stroke-width="0.685708"/>
<path d="M20.6815 18.4759C19.8221 17.7941 18.7815 17.4556 17.741 17.4556C16.5285 17.4556 15.3161 17.9194 14.387 18.8423C12.6682 20.5583 12.5474 23.2715 14.0247 25.1267L20.6861 18.4759H20.6815Z" fill="#B1C2D0"/>
<path d="M21.4573 19.2504L14.7959 25.9012C15.6553 26.583 16.6959 26.9262 17.7364 26.9262C18.9489 26.9262 20.1613 26.4624 21.0904 25.5394C22.8091 23.8234 22.9299 21.1102 21.4527 19.2551L21.4573 19.2504Z" fill="#B1C2D0"/>
</svg>
