<svg width="25" height="24" viewBox="0 0 25 24" fill="none" xmlns="http://www.w3.org/2000/svg">
<path d="M24.0924 21.6371L18.1263 15.749L21.9882 11.9376C22.5363 11.3966 22.5363 10.517 21.9882 9.97604C19.5197 7.53983 16.4853 6.8732 13.5252 8.06687L10.8728 5.44917C11.3148 3.60979 10.7985 1.77742 9.40859 0.405744C8.86042 -0.135248 7.96925 -0.135248 7.42108 0.405744L0.910297 6.83134C0.645054 7.09311 0.5 7.44561 0.5 7.81209C0.5 8.17856 0.648591 8.53459 0.910297 8.79287C2.28956 10.1541 4.17806 10.6357 6.10549 10.161L8.75084 12.7717C7.52365 15.7245 8.18498 18.8135 10.604 21.2043C10.8798 21.4765 11.2371 21.6091 11.5978 21.6091C11.9585 21.6091 12.3192 21.473 12.5915 21.2043L16.1351 17.707L22.1014 23.5951C22.3772 23.8673 22.7344 24 23.0952 24C23.4559 24 23.8166 23.8638 24.0889 23.5951C24.637 23.0541 24.637 22.1746 24.0889 21.6336L24.0924 21.6371ZM11.7074 18.1607C10.7277 16.625 10.7101 14.8903 11.6827 13.1627C11.9868 12.6217 11.8913 11.9446 11.4457 11.5083L7.48472 7.59918C7.21594 7.33392 6.85519 7.1943 6.49092 7.1943C6.31056 7.1943 6.13019 7.22922 5.9569 7.29903C5.34153 7.55033 4.74387 7.62013 4.19923 7.51891L8.15672 3.61328C8.28403 4.14031 8.22391 4.70926 7.97635 5.3061C7.76062 5.82266 7.88081 6.41948 8.28044 6.81737L12.2414 10.7265C12.687 11.1662 13.3695 11.2605 13.9177 10.9603C15.6436 10.0145 17.3482 10.0529 18.9078 11.0581L11.7074 18.1642V18.1607Z" fill="#F7FAFF"/>
</svg>
