<svg width="17" height="18" viewBox="0 0 17 18" fill="none" xmlns="http://www.w3.org/2000/svg">
<path fill-rule="evenodd" clip-rule="evenodd" d="M16.0454 15.9965L12.4412 12.4119C14.9666 9.87089 15.0435 5.792 12.6158 3.15758C10.1881 0.523148 6.11647 0.267294 3.37805 2.57709C0.639636 4.88688 0.205374 8.94332 2.39279 11.7804C4.5802 14.6176 8.61368 15.2294 11.5441 13.1686L15.2184 16.843C15.449 17.0578 15.8082 17.0514 16.031 16.8286C16.2538 16.6058 16.2602 16.2466 16.0454 16.016V15.9965ZM2.27231 7.73115C2.27231 4.71521 4.71721 2.2703 7.73316 2.2703C10.7491 2.2703 13.194 4.71521 13.194 7.73115C13.194 10.7471 10.7491 13.192 7.73316 13.192C4.71721 13.192 2.27231 10.7471 2.27231 7.73115Z" fill="#808E99"/>
<path d="M16.0454 15.9965H16.5454V15.7886L16.3979 15.642L16.0454 15.9965ZM12.4412 12.4119L12.0865 12.0594L11.7342 12.4139L12.0886 12.7664L12.4412 12.4119ZM11.5441 13.1686L11.8976 12.815L11.6003 12.5178L11.2564 12.7596L11.5441 13.1686ZM15.2184 16.843L14.8649 17.1965L14.8711 17.2028L14.8776 17.2088L15.2184 16.843ZM16.0454 16.016H15.5454V16.2129L15.6795 16.3569L16.0454 16.016ZM16.3979 15.642L12.7938 12.0574L12.0886 12.7664L15.6928 16.351L16.3979 15.642ZM12.7958 12.7643C15.5098 10.0335 15.5925 5.64996 12.9835 2.81874L12.2481 3.49641C14.4945 5.93405 14.4233 9.70824 12.0865 12.0594L12.7958 12.7643ZM12.9835 2.81874C10.3744 -0.0124786 5.99865 -0.287444 3.05568 2.19489L3.70043 2.95929C6.23428 0.822033 10.0017 1.05877 12.2481 3.49641L12.9835 2.81874ZM3.05568 2.19489C0.112701 4.67723 -0.354 9.03668 1.99681 12.0857L2.78876 11.4752C0.764748 8.84996 1.16657 5.09654 3.70043 2.95929L3.05568 2.19489ZM1.99681 12.0857C4.34762 15.1348 8.6824 15.7923 11.8317 13.5776L11.2564 12.7596C8.54495 14.6665 4.81277 14.1004 2.78876 11.4752L1.99681 12.0857ZM11.1905 13.5221L14.8649 17.1965L15.572 16.4894L11.8976 12.815L11.1905 13.5221ZM14.8776 17.2088C15.3051 17.6072 15.9713 17.5954 16.3846 17.1822L15.6775 16.4751C15.6451 16.5075 15.5928 16.5084 15.5593 16.4772L14.8776 17.2088ZM16.3846 17.1822C16.7978 16.769 16.8095 16.1027 16.4112 15.6752L15.6795 16.3569C15.7108 16.3904 15.7099 16.4427 15.6775 16.4751L16.3846 17.1822ZM16.5454 16.016V15.9965H15.5454V16.016H16.5454ZM2.77231 7.73115C2.77231 4.99135 4.99336 2.7703 7.73316 2.7703V1.7703C4.44107 1.7703 1.77231 4.43906 1.77231 7.73115H2.77231ZM7.73316 2.7703C10.473 2.7703 12.694 4.99135 12.694 7.73115H13.694C13.694 4.43906 11.0252 1.7703 7.73316 1.7703V2.7703ZM12.694 7.73115C12.694 10.471 10.473 12.692 7.73316 12.692V13.692C11.0252 13.692 13.694 11.0232 13.694 7.73115H12.694ZM7.73316 12.692C4.99336 12.692 2.77231 10.471 2.77231 7.73115H1.77231C1.77231 11.0232 4.44107 13.692 7.73316 13.692V12.692Z" fill="#808E99"/>
</svg>
