<svg width="37" height="38" viewBox="0 0 37 38" fill="none" xmlns="http://www.w3.org/2000/svg">
<g filter="url(#filter0_d_46_1566)">
<path fill-rule="evenodd" clip-rule="evenodd" d="M26.0454 25.9965L22.4412 22.4119C24.9666 19.8709 25.0435 15.792 22.6158 13.1576C20.1881 10.5231 16.1165 10.2673 13.3781 12.5771C10.6396 14.8869 10.2054 18.9433 12.3928 21.7804C14.5802 24.6176 18.6137 25.2294 21.5441 23.1686L25.2184 26.843C25.449 27.0578 25.8082 27.0514 26.031 26.8286C26.2538 26.6058 26.2602 26.2466 26.0454 26.016V25.9965ZM12.2723 17.7312C12.2723 14.7152 14.7172 12.2703 17.7332 12.2703C20.7491 12.2703 23.194 14.7152 23.194 17.7312C23.194 20.7471 20.7491 23.192 17.7332 23.192C14.7172 23.192 12.2723 20.7471 12.2723 17.7312Z" fill="white"/>
<path d="M26.0454 25.9965H26.5454V25.7886L26.3979 25.642L26.0454 25.9965ZM22.4412 22.4119L22.0865 22.0594L21.7342 22.4139L22.0886 22.7664L22.4412 22.4119ZM21.5441 23.1686L21.8976 22.815L21.6003 22.5178L21.2564 22.7596L21.5441 23.1686ZM25.2184 26.843L24.8649 27.1965L24.8711 27.2028L24.8776 27.2088L25.2184 26.843ZM26.0454 26.016H25.5454V26.2129L25.6795 26.3569L26.0454 26.016ZM26.3979 25.642L22.7938 22.0574L22.0886 22.7664L25.6928 26.351L26.3979 25.642ZM22.7958 22.7643C25.5098 20.0335 25.5925 15.65 22.9835 12.8187L22.2481 13.4964C24.4945 15.934 24.4233 19.7082 22.0865 22.0594L22.7958 22.7643ZM22.9835 12.8187C20.3744 9.98752 15.9987 9.71256 13.0557 12.1949L13.7004 12.9593C16.2343 10.822 20.0017 11.0588 22.2481 13.4964L22.9835 12.8187ZM13.0557 12.1949C10.1127 14.6772 9.646 19.0367 11.9968 22.0857L12.7888 21.4752C10.7647 18.85 11.1666 15.0965 13.7004 12.9593L13.0557 12.1949ZM11.9968 22.0857C14.3476 25.1348 18.6824 25.7923 21.8317 23.5776L21.2564 22.7596C18.5449 24.6665 14.8128 24.1004 12.7888 21.4752L11.9968 22.0857ZM21.1905 23.5221L24.8649 27.1965L25.572 26.4894L21.8976 22.815L21.1905 23.5221ZM24.8776 27.2088C25.3051 27.6072 25.9713 27.5954 26.3846 27.1822L25.6775 26.4751C25.6451 26.5075 25.5928 26.5084 25.5593 26.4772L24.8776 27.2088ZM26.3846 27.1822C26.7978 26.769 26.8095 26.1027 26.4112 25.6752L25.6795 26.3569C25.7108 26.3904 25.7099 26.4427 25.6775 26.4751L26.3846 27.1822ZM26.5454 26.016V25.9965H25.5454V26.016H26.5454ZM12.7723 17.7312C12.7723 14.9913 14.9934 12.7703 17.7332 12.7703V11.7703C14.4411 11.7703 11.7723 14.4391 11.7723 17.7312H12.7723ZM17.7332 12.7703C20.473 12.7703 22.694 14.9913 22.694 17.7312H23.694C23.694 14.4391 21.0252 11.7703 17.7332 11.7703V12.7703ZM22.694 17.7312C22.694 20.471 20.473 22.692 17.7332 22.692V23.692C21.0252 23.692 23.694 21.0232 23.694 17.7312H22.694ZM17.7332 22.692C14.9934 22.692 12.7723 20.471 12.7723 17.7312H11.7723C11.7723 21.0232 14.4411 23.692 17.7332 23.692V22.692Z" fill="white"/>
</g>
<defs>
<filter id="filter0_d_46_1566" x="0.499985" y="0.5" width="36.2024" height="37" filterUnits="userSpaceOnUse" color-interpolation-filters="sRGB">
<feFlood flood-opacity="0" result="BackgroundImageFix"/>
<feColorMatrix in="SourceAlpha" type="matrix" values="0 0 0 0 0 0 0 0 0 0 0 0 0 0 0 0 0 0 127 0" result="hardAlpha"/>
<feOffset/>
<feGaussianBlur stdDeviation="5"/>
<feColorMatrix type="matrix" values="0 0 0 0 0 0 0 0 0 0 0 0 0 0 0 0 0 0 0.2 0"/>
<feBlend mode="normal" in2="BackgroundImageFix" result="effect1_dropShadow_46_1566"/>
<feBlend mode="normal" in="SourceGraphic" in2="effect1_dropShadow_46_1566" result="shape"/>
</filter>
</defs>
</svg>
