<svg width="16" height="16" viewBox="0 0 16 16" fill="none" xmlns="http://www.w3.org/2000/svg">
<path d="M15.5101 0.471498C15.2812 0.253087 14.942 0.189562 14.6489 0.310681L1.24182 5.83647C0.942721 5.95958 0.748008 6.24948 0.750015 6.57114C0.752023 6.89082 0.95075 7.17871 1.25185 7.29784L6.03337 9.19008L5.24649 12.0413C5.13006 12.4623 5.38098 12.8951 5.80654 13.0103C5.87679 13.0301 5.94705 13.0381 6.01731 13.0381C6.3686 13.0381 6.68977 12.8078 6.78613 12.4563L7.23377 10.8341L9.12469 14.7973C9.25718 15.0733 9.53821 15.25 9.84533 15.25C9.85537 15.25 9.86741 15.25 9.87745 15.25C10.1966 15.2361 10.4797 15.0356 10.5921 14.7397L15.6988 1.32132C15.8112 1.02746 15.7349 0.693884 15.5061 0.475473L15.5101 0.471498ZM9.76504 12.4365L8.05477 8.85255L10.5579 6.50759C10.8771 6.20777 10.8912 5.70741 10.5881 5.39171C10.2849 5.07601 9.77909 5.0621 9.45992 5.36192L6.84635 7.81212L3.66068 6.55127L13.5589 2.47097L9.76504 12.4365Z" fill="#B1C2D0"/>
</svg>
