<svg width="20" height="20" viewBox="0 0 20 20" fill="none" xmlns="http://www.w3.org/2000/svg">
<path d="M19.6801 0.295331C19.375 0.00411584 18.9227 -0.0805844 18.5319 0.0809075L0.655756 7.44863C0.256962 7.61277 -0.00265597 7.99931 2.04996e-05 8.42819C0.00269697 8.85442 0.267667 9.23828 0.669137 9.39712L7.04449 11.9201L5.99531 15.7218C5.84008 16.283 6.17464 16.8602 6.74205 17.0137C6.83573 17.0402 6.9294 17.0508 7.02308 17.0508C7.49146 17.0508 7.9197 16.7437 8.04817 16.2751L8.64502 14.1122L11.1663 19.3964C11.3429 19.7644 11.7176 20 12.1271 20C12.1405 20 12.1566 20 12.1699 20C12.5955 19.9815 12.9729 19.7141 13.1228 19.3196L19.9317 1.42843C20.0816 1.03661 19.9799 0.591846 19.6748 0.300631L19.6801 0.295331ZM12.0201 16.2486L9.7397 11.4701L13.0773 8.34346C13.5028 7.9437 13.5216 7.27655 13.1174 6.85561C12.7133 6.43468 12.0388 6.41614 11.6132 6.8159L8.12846 10.0828L3.8809 8.40169L17.0786 2.96129L12.0201 16.2486Z" fill="#F7FAFF"/>
</svg>
