<svg width="16" height="16" viewBox="0 0 16 16" fill="none" xmlns="http://www.w3.org/2000/svg">
<path fill-rule="evenodd" clip-rule="evenodd" d="M9.57911 16H6.05625C5.56819 16 5.07126 15.5528 5.07126 15.0728V13.9526C4.55023 13.781 4.31201 13.5785 4.0362 13.344C3.95971 13.279 3.88033 13.2115 3.79123 13.1416L3.01478 13.6128C2.80846 13.7334 2.57332 13.7663 2.3426 13.7049C2.11189 13.6413 1.92331 13.4901 1.80795 13.2818L0.146354 10.2633C-0.0821435 9.84903 0.066491 9.32951 0.479118 9.09276L1.32434 8.60832C1.30215 8.38692 1.29107 8.16332 1.29107 7.94192C1.29107 7.64818 1.31325 7.35007 1.3554 7.04975L0.443629 6.53459C0.0243469 6.29785 -0.124286 5.76955 0.113086 5.35305L1.82348 2.33458C1.93884 2.12852 2.13406 1.97945 2.36478 1.91807C2.59328 1.8567 2.83952 1.89175 3.04362 2.01012L3.98645 2.59542C4.02024 2.5708 4.05337 2.54651 4.08603 2.52256C4.39651 2.29494 4.66538 2.09782 5.06682 1.93121V0.782563C5.06682 0.300304 5.56375 0 6.0518 0H9.57911C10.0672 0 10.391 0.300304 10.391 0.782563V1.769C10.8347 1.9641 11.4004 2.21401 11.8419 2.52309L12.8025 1.99918C13.2151 1.7712 13.7475 1.90492 13.9938 2.30388L15.8683 5.32239C15.9926 5.52406 16.0325 5.76518 15.9726 5.99315C15.9127 6.22113 15.7641 6.41622 15.5578 6.5324L14.6549 7.04317C14.6992 7.34568 14.7214 7.64599 14.7214 7.94192C14.7214 8.1677 14.7103 8.39348 14.6859 8.61927L15.5112 9.09276C15.7153 9.20895 15.8617 9.40184 15.9216 9.62762C15.9815 9.8534 15.946 10.0924 15.8262 10.2919L14.0093 13.3104C13.7653 13.7159 13.2373 13.8562 12.8202 13.626L12.0438 13.2139C11.6576 13.5047 11.1377 13.7542 10.7171 13.956C10.5988 14.0128 10.4884 14.0658 10.391 14.1148V15.0728C10.391 15.555 10.0649 16 9.57911 16ZM4.91154 7.89151C4.91154 9.5816 6.30249 10.956 8.0129 10.956C9.72331 10.956 11.1143 9.5816 11.1143 7.89151C11.1143 6.20141 9.72331 4.82698 8.0129 4.82698C6.30249 4.82698 4.91154 6.20141 4.91154 7.89151Z" fill="white"/>
</svg>
