<svg width="16" height="16" viewBox="0 0 16 16" fill="none" xmlns="http://www.w3.org/2000/svg">
<path d="M15.7243 7.37752L11.0469 3.01087C10.6785 2.66695 10.0796 2.66695 9.71122 3.01087C9.34283 3.35479 9.34283 3.98937 9.71122 4.33551L12.7819 7.27768H5.05524C4.53236 7.27768 4.10931 7.67707 4.10931 8.16521C4.10931 8.65336 4.53236 9.05275 5.05524 9.05275H12.7582L9.71122 11.8196C9.34283 12.1635 9.34283 12.685 9.71122 13.0289C9.8966 13.202 10.1367 13.2685 10.3791 13.2685C10.6215 13.2685 10.8639 13.1731 11.0469 13.0001L15.7243 8.62894C15.9025 8.46253 16 8.23622 16 8.00324C16 7.77027 15.9002 7.54171 15.7243 7.37752V7.37752Z" fill="white"/>
<path d="M8.62983 15.9978H0.945926C0.42305 15.9978 0 15.6028 0 15.1147V0.883091C0 0.394948 0.42305 0 0.945926 0H8.62983C9.15271 0 9.57576 0.394948 9.57576 0.883091C9.57576 1.37123 9.15271 1.76621 8.62983 1.76621H1.88947V14.2338H8.62983C9.15271 14.2338 9.57576 14.6288 9.57576 15.1169C9.57576 15.6051 9.15271 16 8.62983 16V15.9978Z" fill="white"/>
</svg>
