<svg width="109" height="107" viewBox="0 0 109 107" fill="none" xmlns="http://www.w3.org/2000/svg">
<g filter="url(#filter0_d_37_7925)">
<path d="M51.303 56.8286C50.6464 56.8286 50.0501 56.1763 49.8614 55.5277L45.1703 38.9991H41.502C40.6718 38.9991 40 38.3243 40 37.4995C40 36.6748 40.6718 36 41.502 36H46.3025C46.9705 36 47.5593 36.671 47.7442 37.3121L52.3597 53.4771L65.1535 50.8154L65.8026 45.9007L53.4353 45.3871C52.6088 45.3534 51.9635 44.6636 52.0012 43.8426C52.0352 43.0216 52.7447 42.403 53.5636 42.4218L67.5651 43.0178C67.984 43.0366 68.3803 43.2278 68.6482 43.5502C68.9199 43.8688 69.0407 44.2887 68.9879 44.7011L67.9878 52.3037C67.9047 52.9298 67.4368 53.4359 66.8141 53.5671L51.6125 56.7948C51.5068 56.8173 51.4012 56.8286 51.2993 56.8286H51.303Z" fill="white"/>
<path d="M50.9729 63C49.6769 63 48.6216 61.9614 48.6216 60.6857C48.6216 59.4101 49.6769 58.3715 50.9729 58.3715C52.269 58.3715 53.3243 59.4101 53.3243 60.6857C53.3243 61.9614 52.269 63 50.9729 63Z" fill="white"/>
<path d="M61.9461 63C60.65 63 59.5947 61.9614 59.5947 60.6857C59.5947 59.4101 60.65 58.3715 61.9461 58.3715C63.2421 58.3715 64.2974 59.4101 64.2974 60.6857C64.2974 61.9614 63.2421 63 61.9461 63Z" fill="white"/>
</g>
<defs>
<filter id="filter0_d_37_7925" x="0" y="0" width="109" height="107" filterUnits="userSpaceOnUse" color-interpolation-filters="sRGB">
<feFlood flood-opacity="0" result="BackgroundImageFix"/>
<feColorMatrix in="SourceAlpha" type="matrix" values="0 0 0 0 0 0 0 0 0 0 0 0 0 0 0 0 0 0 127 0" result="hardAlpha"/>
<feOffset dy="4"/>
<feGaussianBlur stdDeviation="20"/>
<feColorMatrix type="matrix" values="0 0 0 0 0 0 0 0 0 0 0 0 0 0 0 0 0 0 0.1 0"/>
<feBlend mode="normal" in2="BackgroundImageFix" result="effect1_dropShadow_37_7925"/>
<feBlend mode="normal" in="SourceGraphic" in2="effect1_dropShadow_37_7925" result="shape"/>
</filter>
</defs>
</svg>
