<svg width="28" height="24" viewBox="0 0 28 24" fill="none" xmlns="http://www.w3.org/2000/svg">
<path d="M11.0235 18.5143C10.4121 18.5143 9.85697 17.9345 9.68129 17.358L5.31376 2.66584H1.89845C1.12544 2.66584 0.5 2.06603 0.5 1.33292C0.5 0.599815 1.12544 0 1.89845 0H6.36787C6.9898 0 7.53793 0.596483 7.7101 1.16631L12.0074 15.5352L23.9188 13.1693L24.5231 8.80062L13.0088 8.34409C12.2393 8.3141 11.6384 7.70096 11.6736 6.97118C11.7052 6.24141 12.3657 5.69158 13.1282 5.70824L26.164 6.23808C26.5541 6.25474 26.923 6.42468 27.1725 6.71126C27.4255 6.99451 27.5379 7.36773 27.4887 7.73428L26.5576 14.4922C26.4803 15.0487 26.0446 15.4986 25.4648 15.6152L11.3116 18.4843C11.2133 18.5043 11.1149 18.5143 11.02 18.5143H11.0235Z" fill="#224AAE"/>
<path d="M10.7162 24C9.5095 24 8.52698 23.0768 8.52698 21.9429C8.52698 20.809 9.5095 19.8857 10.7162 19.8857C11.9228 19.8857 12.9054 20.809 12.9054 21.9429C12.9054 23.0768 11.9228 24 10.7162 24Z" fill="#224AAE"/>
<path d="M20.9324 24C19.7257 24 18.7432 23.0768 18.7432 21.9429C18.7432 20.809 19.7257 19.8857 20.9324 19.8857C22.139 19.8857 23.1215 20.809 23.1215 21.9429C23.1215 23.0768 22.139 24 20.9324 24Z" fill="#224AAE"/>
</svg>
