<svg width="12" height="12" viewBox="0 0 12 12" fill="none" xmlns="http://www.w3.org/2000/svg">
<path d="M1.30111 12C1.13669 12 0.973851 11.9354 0.85253 11.8128C0.668952 11.6272 0.616257 11.3479 0.716826 11.1075L1.67782 8.8269C1.02332 7.88756 0.665771 6.75615 0.665771 5.60054C0.665771 2.51298 3.14965 0 6.20503 0C9.26041 0 11.7427 2.51137 11.7427 5.60054C11.7427 8.68971 9.25881 11.1995 6.20503 11.1995C5.50903 11.1995 4.8306 11.0687 4.18249 10.8089L1.55015 11.9467C1.47033 11.9822 1.38571 11.9984 1.30111 11.9984V12ZM6.20503 1.28474C3.85044 1.28474 1.93644 3.22152 1.93644 5.60054C1.93644 6.59153 2.27806 7.56154 2.89904 8.32979C3.04909 8.51379 3.08418 8.76718 2.9916 8.98668L2.50475 10.1391L3.93186 9.52252C4.09468 9.45151 4.28145 9.45313 4.44427 9.52899C5.00459 9.78722 5.59683 9.91795 6.20503 9.91795C8.55962 9.91795 10.4736 7.98117 10.4736 5.60215C10.4736 3.22314 8.55802 1.28635 6.20503 1.28635V1.28474Z" fill="#F7FAFF"/>
<path d="M3.96065 6.38825C3.60946 6.38825 3.32532 6.09935 3.32532 5.74589C3.32532 5.39243 3.61106 5.10352 3.96065 5.10352C4.31025 5.10352 4.59599 5.39243 4.59599 5.74589C4.59599 6.09935 4.31025 6.38825 3.96065 6.38825Z" fill="#F7FAFF"/>
<path d="M6.20516 6.38825C5.85397 6.38825 5.56982 6.09935 5.56982 5.74589C5.56982 5.39243 5.85556 5.10352 6.20516 5.10352C6.55476 5.10352 6.8405 5.39243 6.8405 5.74589C6.8405 6.09935 6.55476 6.38825 6.20516 6.38825Z" fill="#F7FAFF"/>
<path d="M8.44808 6.38825C8.09689 6.38825 7.81274 6.09935 7.81274 5.74589C7.81274 5.39243 8.09848 5.10352 8.44808 5.10352C8.79768 5.10352 9.08342 5.39243 9.08342 5.74589C9.08342 6.09935 8.79768 6.38825 8.44808 6.38825Z" fill="#F7FAFF"/>
</svg>
