<svg width="12" height="11" viewBox="0 0 12 11" fill="none" xmlns="http://www.w3.org/2000/svg">
<path d="M4.22488 1.68581C4.78074 -0.0377436 7.21927 -0.0377436 7.77513 1.68581C8.02407 2.4577 8.74329 2.98025 9.55433 2.97848C11.3653 2.97452 12.1188 5.2937 10.6514 6.35496C9.99423 6.83025 9.71951 7.67574 9.97182 8.44654C10.5352 10.1676 8.56239 11.601 7.09961 10.5333C6.44451 10.0552 5.5555 10.0552 4.9004 10.5333C3.43762 11.601 1.46481 10.1676 2.02819 8.44654C2.2805 7.67574 2.00578 6.83025 1.3486 6.35496C-0.118835 5.2937 0.634713 2.97452 2.44568 2.97848C3.25672 2.98025 3.97594 2.4577 4.22488 1.68581Z" fill="#B1C2D0"/>
</svg>
