<svg width="17" height="16" viewBox="0 0 17 16" fill="none" xmlns="http://www.w3.org/2000/svg">
<path d="M8.38614 15.3437C4.33001 15.3437 1.03217 12.0437 1.03217 7.98972C1.03217 3.93571 4.33213 0.635742 8.38614 0.635742C12.4401 0.635742 15.7401 3.93571 15.7401 7.98972C15.7401 12.0437 12.4401 15.3437 8.38614 15.3437ZM8.38614 2.31961C5.25985 2.31961 2.71603 4.86343 2.71603 7.98972C2.71603 11.116 5.25985 13.6598 8.38614 13.6598C11.5124 13.6598 14.0562 11.116 14.0562 7.98972C14.0562 4.86343 11.5124 2.31961 8.38614 2.31961Z" fill="#00B7F0"/>
<path d="M11.5294 9.03186H8.32895C7.86297 9.03186 7.46902 8.62309 7.46902 8.15711V3.60959C7.46902 3.14362 7.85028 2.7666 8.31626 2.7666C8.78224 2.7666 9.16349 3.14362 9.16349 3.60959V7.33527H11.5294C11.9953 7.33527 12.3724 7.71653 12.3724 8.1825C12.3724 8.64848 11.9953 9.02974 11.5294 9.02974V9.03186Z" fill="#00B7F0"/>
</svg>
