<svg width="13" height="13" viewBox="0 0 13 13" fill="none" xmlns="http://www.w3.org/2000/svg">
<path d="M6.49122 12.4666C3.19561 12.4666 0.516113 9.78535 0.516113 6.49147C0.516113 3.19758 3.19734 0.516357 6.49122 0.516357C9.7851 0.516357 12.4663 3.19758 12.4663 6.49147C12.4663 9.78535 9.7851 12.4666 6.49122 12.4666ZM6.49122 1.8845C3.95111 1.8845 1.88425 3.95135 1.88425 6.49147C1.88425 9.03158 3.95111 11.0984 6.49122 11.0984C9.03133 11.0984 11.0982 9.03158 11.0982 6.49147C11.0982 3.95135 9.03133 1.8845 6.49122 1.8845Z" fill="#B1C2D0"/>
<path d="M9.04513 7.33808H6.44479C6.06618 7.33808 5.74609 7.00596 5.74609 6.62735V2.93249C5.74609 2.55388 6.05586 2.24756 6.43447 2.24756C6.81308 2.24756 7.12285 2.55388 7.12285 2.93249V5.9596H9.04513C9.42373 5.9596 9.73006 6.26937 9.73006 6.64798C9.73006 7.02659 9.42373 7.33636 9.04513 7.33636V7.33808Z" fill="#B1C2D0"/>
</svg>
