<svg width="18" height="18" viewBox="0 0 18 18" fill="none" xmlns="http://www.w3.org/2000/svg">
<g clip-path="url(#clip0_82_9307)">
<path d="M17.1157 9.19942C17.1157 8.60832 17.0684 8.01402 16.9676 7.4325H8.87848V10.781H13.5107C13.3185 11.861 12.7009 12.8164 11.7965 13.4234V15.5962H14.5601C16.1829 14.0816 17.1157 11.845 17.1157 9.19942Z" fill="#4285F4"/>
<path d="M8.87848 17.6954C11.1914 17.6954 13.142 16.9254 14.5632 15.5962L11.7996 13.4234C11.0307 13.9538 10.0381 14.2542 8.88163 14.2542C6.64428 14.2542 4.74727 12.7237 4.06661 10.666H1.21478V12.9058C2.67063 15.8422 5.6359 17.6954 8.87848 17.6954Z" fill="#34A853"/>
<path d="M4.06347 10.666C3.70423 9.58605 3.70423 8.41661 4.06347 7.33665V5.09683H1.21479C-0.00156903 7.55392 -0.00156903 10.4487 1.21479 12.9058L4.06347 10.666Z" fill="#FBBC04"/>
<path d="M8.87848 3.74528C10.1011 3.72611 11.2828 4.1926 12.1683 5.04891L14.6168 2.56626C13.0664 1.0901 11.0087 0.278522 8.87848 0.304083C5.6359 0.304083 2.67063 2.15728 1.21478 5.09684L4.06346 7.33665C4.74096 5.27577 6.64113 3.74528 8.87848 3.74528Z" fill="#EA4335"/>
</g>
<defs>
<clipPath id="clip0_82_9307">
<rect width="16.8116" height="17.3913" fill="white" transform="translate(0.304092 0.304077)"/>
</clipPath>
</defs>
</svg>
